<svg xmlns="http://www.w3.org/2000/svg" width="383" height="45"><defs><clipPath id="a"><path d="M0 0h383v45H0z"/></clipPath></defs><g clip-path="url(#a)"><path d="M325.9 42a11.6 11.6 0 01-8-11V14a11.6 11.6 0 017.8-11c.3-.1 3.5-2 24-2 11.4 0 17.5.6 20.6 1 3.4.6 4.1 1.1 4.2 1.1h0a11.6 11.6 0 017.6 11V31a11.6 11.6 0 01-7.7 10.9c-.2.2-3.3 1.9-24.1 1.9-18.5 0-23.4-1.4-24.4-1.8zm34.5-12.5h2.8l5.5-13.8h-3.2l-3.7 9.7-3.7-9.7h-3.2zm-29.9-11h5.5v11h2.7v-11h2.8l2.7-2.8h-11zM79.5 35V10.2h24.8V35zm11-5.5h2.8V15.8h-2.8zM1 35V10.2h24.7V35zm5.5-16.5H12v11h2.7v-11h2.8l2.7-2.7h-11zm288 11V15.8h13.7l-2.7 2.7h-8.3v2.7h11l-2.7 2.8h-8.3v2.7h11l-2.7 2.8zm-26.2 0V15.8H282l-2.7 2.7H271v8.2h11l-2.7 2.8zm-15.6 0l-3.7-9.6-3.7 9.6H242l5.5-13.7h2.8l5.5 13.7zm-36.8 0V15.8h13.8l-2.8 2.7h-8.2v2.7h11l-2.8 2.8h-8.2v5.5zm-15.8 0l-7.2-8.2h7.9v-2.8h-8.3v11h-2.7V15.8h13.7V24h-4.8l4.8 5.5zm-36.5 0V15.8h13.7l-2.7 2.7h-8.3v2.7h11l-2.7 2.8h-8.3v2.7h11l-2.7 2.8zm-20.7 0v-11h-5.5l2.7-2.7h11l-2.7 2.7h-2.7v11zm-20.7 0L114 20v9.5h-2.8V15.8h2.8l8.2 9.7v-9.7h2.8v13.7zm-63.3 0V15.8h13.7L70 18.5h-8.3v2.7h11L70 24h-8.3v2.7h11L70 29.5zm-15.2 0V24h-8.3v5.5h-2.7V15.8h2.7v5.5h8.3v-5.5h2.7v13.7z" fill="#fff" stroke="rgba(0,0,0,0)" stroke-miterlimit="10"/></g></svg>