<svg xmlns="http://www.w3.org/2000/svg" width="356" height="31"><defs><clipPath id="a"><path d="M0 0h356v31H0z"/></clipPath></defs><g clip-path="url(#a)"><path d="M6.4 10.8h6.3v12.8H16V10.8h3.2l3.2-3.2H9.6zm22.3-9.6V30H0V1.3zm11.2 6.4V14h9.6V7.6h3.1v16h-3.1v-6.4h-9.6v6.4h-3.2v-16zM70.2 14H83l-3.2 3.2h-9.6v3.2H83l-3.2 3.2H67v-16h16l-3.2 3.2h-9.6zm33.6-6.4v16h3.1v-16zm15.9-6.3v28.6H91V1.3zm8 22.3v-16h3.2l9.6 11.3V7.6h3.1v16h-3.1l-9.6-11v11zm33.5-16H174l-3.2 3.2h-3.2v12.8h-3.2V10.8h-6.3zm30.4 6.4h12.7l-3.2 3.2h-9.5v3.2h12.7l-3.2 3.2h-12.7v-16h16l-3.3 3.2h-9.5zm39.9 0v-3.2h-9.6v12.8h-3.2v-16h16v9.6H229l5.7 6.4h-4l-8.4-9.6zM249 7.6H265l-3.2 3.2h-9.5V14H265l-3.2 3.2h-9.6v6.4h-3.1zm42.6 16l-4.3-11.2-4.4 11.2h-3.6l6.4-16h3.2l6.3 16zm18-16h16l-3.2 3.2h-9.6v9.6h12.8l-3.2 3.2h-12.8zm33.6 6.4H356l-3.2 3.2h-9.5v3.2H356l-3.2 3.2h-12.7v-16H356l-3.2 3.2h-9.5z" fill="#3b3b3b"/></g></svg>